<svg width="177" height="30" viewBox="0 0 177 30" fill="none" xmlns="http://www.w3.org/2000/svg">
<g clip-path="url(#clip0_509_5424)">
<mask id="mask0_509_5424" style="mask-type:luminance" maskUnits="userSpaceOnUse" x="12" y="0" width="28" height="28">
<path d="M12.873 14.0201C12.873 21.7359 19.1827 27.9907 26.9662 27.9907C29.3715 27.9907 31.635 27.394 33.6146 26.3391C31.4542 24.4515 30.0879 21.6905 30.0879 18.6119C30.0879 13.1376 34.4019 8.65926 39.8441 8.34391C37.6517 3.45492 32.7106 0.0473633 26.9662 0.0473633C19.1827 0.0473633 12.873 6.30211 12.873 14.0201Z" fill="white"/>
</mask>
<g mask="url(#mask0_509_5424)">
<path d="M19.8741 -11.6758L0.514648 20.7356L32.8443 39.7116L52.2038 7.30018L19.8741 -11.6758Z" fill="url(#paint0_linear_509_5424)"/>
</g>
<path d="M39.8471 8.34627C34.4025 8.65935 30.0908 13.14 30.0908 18.6143C30.0908 21.6929 31.4548 24.4539 33.6175 26.3414C35.4461 27.9318 37.8423 28.8982 40.465 28.8982C46.198 28.8982 50.8415 24.2951 50.8415 18.6143C50.8415 12.9335 46.198 8.32812 40.465 8.32812C40.2568 8.32812 40.0531 8.33266 39.8494 8.34854" fill="url(#paint1_linear_509_5424)"/>
<mask id="mask1_509_5424" style="mask-type:luminance" maskUnits="userSpaceOnUse" x="30" y="8" width="21" height="21">
<path d="M39.8471 8.34627C34.4025 8.65935 30.0908 13.14 30.0908 18.6143C30.0908 21.6929 31.4548 24.4539 33.6175 26.3414C35.4461 27.9318 37.8423 28.8982 40.465 28.8982C46.198 28.8982 50.8415 24.2951 50.8415 18.6143C50.8415 12.9335 46.198 8.32812 40.465 8.32812C40.2568 8.32812 40.0531 8.33266 39.8494 8.34854" fill="white"/>
</mask>
<g mask="url(#mask1_509_5424)">
<path d="M38.6123 -1.79217L19.8838 20.4513L42.3226 39.0168L61.0511 16.7733L38.6123 -1.79217Z" fill="url(#paint2_linear_509_5424)"/>
</g>
<path d="M40.2152 29.039H19.3547C11.99 29.039 5.99612 23.0996 5.99612 15.799V7.94031C5.99612 5.74197 4.19271 3.95198 1.97277 3.95198C0.883398 3.95425 0 3.07854 0 1.99638C0 0.914222 0.883398 0.0385132 1.97506 0.0385132C6.36916 0.0385132 9.94624 3.58446 9.94624 7.94258V15.8013C9.94624 20.9444 14.1664 25.1278 19.3547 25.1278H40.2152C41.3069 25.1278 42.1903 26.0035 42.1903 27.0857C42.1903 28.1678 41.3069 29.0435 40.2152 29.0435" fill="#1C1E3C"/>
<path d="M40.5882 29.0391C39.4966 29.0391 38.6132 28.1634 38.6132 27.0812C38.6132 25.999 39.4966 25.1233 40.5882 25.1233C44.2408 25.1233 47.2137 22.1763 47.2137 18.5555C47.2137 14.9347 44.2408 11.99 40.5882 11.99C40.1214 11.99 39.6568 12.0376 39.2082 12.1329C38.2447 12.3371 37.2766 11.8062 36.9402 10.8874C35.4091 6.71528 31.3675 3.9112 26.8841 3.9112C22.4008 3.9112 18.3911 6.69486 16.8463 10.8397C16.4687 11.8538 15.3336 12.3711 14.3106 11.9968C13.2876 11.6224 12.7658 10.4972 13.1434 9.48307C15.258 3.81138 20.7804 0 26.8818 0C32.4797 0 37.5741 3.1943 40.0184 8.09237C40.2083 8.08329 40.396 8.07649 40.5859 8.07649C46.415 8.07649 51.1592 12.7772 51.1592 18.5578C51.1592 24.3384 46.415 29.0391 40.5859 29.0391" fill="#1C1E3C"/>
<path d="M33.4911 15.4361C33.1181 15.4361 32.745 15.3113 32.4201 15.0504C31.6122 14.3993 31.4382 13.1515 32.0287 12.2622C32.4292 11.661 32.8892 11.1029 33.3996 10.6038C34.656 9.37192 36.1871 8.51889 37.8234 8.13549C38.8029 7.90635 39.7664 8.59376 39.9747 9.66911C40.183 10.7467 39.5582 11.8062 38.5787 12.0353C37.5557 12.2758 36.5967 12.8112 35.8095 13.5826C35.4891 13.8957 35.2007 14.245 34.9512 14.6194C34.5965 15.1525 34.045 15.4338 33.4865 15.4338" fill="#1C1E3C"/>
<path d="M58.7119 20.6202V10.5223C58.7119 7.62071 60.2293 5.90332 63.1014 5.90332C65.9736 5.90332 67.491 7.62298 67.491 10.5223V12.5097H64.6737V10.334C64.6737 9.09762 64.0787 8.58716 63.1838 8.58716C62.289 8.58716 61.694 9.09762 61.694 10.334V20.8357C61.694 22.0722 62.289 22.5554 63.1838 22.5554C64.0787 22.5554 64.6737 22.0722 64.6737 20.8357V17.9613H67.491V20.6202C67.491 23.5219 65.9736 25.2393 63.1014 25.2393C60.2293 25.2393 58.7119 23.5196 58.7119 20.6202Z" fill="#1C1E3C"/>
<path d="M69.1152 20.5133V10.6309C69.1152 7.62266 70.715 5.90527 73.6398 5.90527C76.5646 5.90527 78.1643 7.62493 78.1643 10.6309V20.5133C78.1643 23.5215 76.5669 25.2412 73.6398 25.2412C70.7127 25.2412 69.1152 23.5215 69.1152 20.5133ZM75.1846 20.7016V10.4426C75.1846 9.09957 74.5896 8.58912 73.6398 8.58912C72.69 8.58912 72.095 9.09957 72.095 10.4426V20.7016C72.095 22.0446 72.69 22.5551 73.6398 22.5551C74.5896 22.5551 75.1846 22.0446 75.1846 20.7016Z" fill="#1C1E3C"/>
<path d="M82.3915 8.85701H79.2744V6.1709H88.486V8.85701H85.3712V24.9714H82.3915V8.85701Z" fill="#1C1E3C"/>
<path d="M92.523 8.85701H89.4082V6.1709H98.6198V8.85701H95.5027V24.9714H92.523V8.85701Z" fill="#1C1E3C"/>
<path d="M99.7305 20.5133V10.6309C99.7305 7.62266 101.33 5.90527 104.255 5.90527C107.18 5.90527 108.78 7.62493 108.78 10.6309V20.5133C108.78 23.5215 107.182 25.2412 104.255 25.2412C101.328 25.2412 99.7305 23.5215 99.7305 20.5133ZM105.8 20.7016V10.4426C105.8 9.09957 105.205 8.58912 104.255 8.58912C103.305 8.58912 102.71 9.09957 102.71 10.4426V20.7016C102.71 22.0446 103.305 22.5551 104.255 22.5551C105.205 22.5551 105.8 22.0446 105.8 20.7016Z" fill="#1C1E3C"/>
<path d="M110.784 6.17078H114.524L117.423 17.4234H117.476V6.17078H120.133V24.9713H117.071L113.494 11.2458H113.441V24.9713H110.784V6.17078Z" fill="#1C1E3C"/>
<path d="M126.5 20.62V10.5221C126.5 7.62046 128.017 5.90308 130.89 5.90308C133.762 5.90308 135.279 7.62273 135.279 10.5221V12.5095H132.462V10.3338C132.462 9.09737 131.867 8.58692 130.972 8.58692C130.077 8.58692 129.482 9.09737 129.482 10.3338V20.8355C129.482 22.0719 130.077 22.5552 130.972 22.5552C131.867 22.5552 132.462 22.0719 132.462 20.8355V17.9611H135.279V20.62C135.279 23.5216 133.762 25.239 130.89 25.239C128.017 25.239 126.5 23.5194 126.5 20.62Z" fill="#1C1E3C"/>
<path d="M137.064 6.1709H140.046V22.2853H144.951V24.9714H137.064V6.1709Z" fill="#1C1E3C"/>
<path d="M146.061 20.5134V10.631C146.061 7.62278 147.66 5.9054 150.585 5.9054C153.51 5.9054 155.11 7.62505 155.11 10.631V20.5134C155.11 23.5217 153.512 25.2413 150.585 25.2413C147.658 25.2413 146.061 23.5217 146.061 20.5134ZM152.13 20.7017V10.4427C152.13 9.09969 151.535 8.58924 150.585 8.58924C149.635 8.58924 149.04 9.09969 149.04 10.4427V20.7017C149.04 22.0448 149.635 22.5552 150.585 22.5552C151.535 22.5552 152.13 22.0448 152.13 20.7017Z" fill="#1C1E3C"/>
<path d="M157.007 20.5134V6.17078H159.987V20.7266C159.987 22.0697 160.556 22.5529 161.504 22.5529C162.451 22.5529 163.021 22.0697 163.021 20.7266V6.17078H165.893V20.5134C165.893 23.5216 164.376 25.2413 161.451 25.2413C158.526 25.2413 157.009 23.5216 157.009 20.5134" fill="#1C1E3C"/>
<path d="M168.006 6.17078H172.558C175.538 6.17078 177 7.80876 177 10.817V20.325C177 23.3333 175.538 24.9713 172.558 24.9713H168.006V6.17078ZM172.503 22.2852C173.45 22.2852 174.02 21.802 174.02 20.4589V10.6832C174.02 9.34012 173.45 8.85689 172.503 8.85689H170.986V22.2852H172.503Z" fill="#1C1E3C"/>
</g>
<defs>
<linearGradient id="paint0_linear_509_5424" x1="28.1829" y1="15.942" x2="43.6461" y2="25.1782" gradientUnits="userSpaceOnUse">
<stop stop-color="#8B8B8B"/>
<stop offset="1" stop-color="#1C1E3C"/>
</linearGradient>
<linearGradient id="paint1_linear_509_5424" x1="30.0908" y1="18.612" x2="50.8415" y2="18.612" gradientUnits="userSpaceOnUse">
<stop stop-color="#8B8B8B"/>
<stop offset="1" stop-color="#1C1E3C"/>
</linearGradient>
<linearGradient id="paint2_linear_509_5424" x1="31.728" y1="11.1898" x2="47.613" y2="24.5646" gradientUnits="userSpaceOnUse">
<stop stop-color="#8B8B8B"/>
<stop offset="1" stop-color="#1C1E3C"/>
</linearGradient>
<clipPath id="clip0_509_5424">
<rect width="177" height="29.0391" fill="white"/>
</clipPath>
</defs>
</svg>
