<svg width="16" height="16" viewBox="0 0 16 16" fill="none" xmlns="http://www.w3.org/2000/svg">
<path d="M5.80463 6.90175C6.585 8.274 7.726 9.415 9.09825 10.1953L9.83533 9.16342C10.0804 8.82042 10.543 8.71442 10.913 8.9165C12.0853 9.55692 13.3809 9.94608 14.7324 10.0531C15.1658 10.0874 15.5 10.4491 15.5 10.8838V14.6028C15.5 15.0301 15.1768 15.3881 14.7518 15.4318C14.3102 15.4772 13.8647 15.5 13.4167 15.5C6.28299 15.5 0.5 9.717 0.5 2.58333C0.5 2.13522 0.52285 1.68976 0.568242 1.24813C0.611917 0.823125 0.96995 0.5 1.39721 0.5H5.11618C5.55092 0.5 5.91261 0.8342 5.94692 1.26757C6.05389 2.61907 6.44308 3.9147 7.0835 5.08703C7.28558 5.457 7.17958 5.91962 6.83658 6.16464L5.80463 6.90175ZM3.70354 6.35433L5.28683 5.22341C4.83789 4.25428 4.53023 3.22652 4.37273 2.16667H2.17422C2.16919 2.30527 2.16667 2.44417 2.16667 2.58333C2.16667 8.7965 7.2035 13.8333 13.4167 13.8333C13.5558 13.8333 13.6947 13.8308 13.8333 13.8257V11.6272C12.7735 11.4697 11.7457 11.1621 10.7766 10.7132L9.64567 12.2965C9.18817 12.1187 8.74633 11.9096 8.32283 11.6717L8.27442 11.6442C6.64142 10.7156 5.28445 9.35858 4.35583 7.72558L4.32828 7.67717C4.09041 7.25367 3.88128 6.81183 3.70354 6.35433Z" fill="#D5D5D5"/>
</svg>
